<mxfile host="Electron" modified="2024-03-25T10:09:25.077Z" agent="Mozilla/5.0 (Windows NT 10.0; Win64; x64) AppleWebKit/537.36 (KHTML, like Gecko) draw.io/23.1.5 Chrome/120.0.6099.109 Electron/28.1.0 Safari/537.36" etag="Gl5ZIgoRYQqHtqbgBCZ9" version="23.1.5" type="device">
  <diagram id="prtHgNgQTEPvFCAcTncT" name="Page-1">
    <mxGraphModel dx="1400" dy="1997" grid="1" gridSize="10" guides="1" tooltips="1" connect="1" arrows="1" fold="1" page="1" pageScale="1" pageWidth="827" pageHeight="1169" math="0" shadow="0">
      <root>
        <mxCell id="0" />
        <mxCell id="1" parent="0" />
        <mxCell id="1Auj9QXmfHMQDuy0KA_7-6" value="Movieradar applicatie" style="swimlane;whiteSpace=wrap;html=1;startSize=20;" vertex="1" parent="1">
          <mxGeometry x="140" y="-110" width="600" height="610" as="geometry" />
        </mxCell>
        <mxCell id="1Auj9QXmfHMQDuy0KA_7-7" value="Homescherm" style="swimlane;whiteSpace=wrap;html=1;startSize=30;" vertex="1" parent="1Auj9QXmfHMQDuy0KA_7-6">
          <mxGeometry y="20" width="150" height="590" as="geometry" />
        </mxCell>
        <mxCell id="1Auj9QXmfHMQDuy0KA_7-8" value="" style="verticalLabelPosition=bottom;verticalAlign=top;html=1;shape=mxgraph.flowchart.on-page_reference;" vertex="1" parent="1Auj9QXmfHMQDuy0KA_7-7">
          <mxGeometry x="62.5" y="30" width="20" height="20" as="geometry" />
        </mxCell>
        <mxCell id="1Auj9QXmfHMQDuy0KA_7-9" value="Op film klikken" style="rounded=1;whiteSpace=wrap;html=1;" vertex="1" parent="1Auj9QXmfHMQDuy0KA_7-7">
          <mxGeometry x="15" y="90" width="115" height="60" as="geometry" />
        </mxCell>
        <mxCell id="1Auj9QXmfHMQDuy0KA_7-10" value="" style="endArrow=none;html=1;rounded=0;entryX=0.5;entryY=1;entryDx=0;entryDy=0;entryPerimeter=0;exitX=0.5;exitY=0;exitDx=0;exitDy=0;" edge="1" parent="1Auj9QXmfHMQDuy0KA_7-7" source="1Auj9QXmfHMQDuy0KA_7-9" target="1Auj9QXmfHMQDuy0KA_7-8">
          <mxGeometry width="50" height="50" relative="1" as="geometry">
            <mxPoint x="80" y="90" as="sourcePoint" />
            <mxPoint x="130" y="40" as="targetPoint" />
          </mxGeometry>
        </mxCell>
        <mxCell id="1Auj9QXmfHMQDuy0KA_7-11" value="Filmdetailscherm" style="swimlane;whiteSpace=wrap;html=1;startSize=30;" vertex="1" parent="1Auj9QXmfHMQDuy0KA_7-6">
          <mxGeometry x="150" y="20" width="150" height="590" as="geometry" />
        </mxCell>
        <mxCell id="1Auj9QXmfHMQDuy0KA_7-13" value="Klik op &quot;Bestel tickets&quot;" style="rounded=1;whiteSpace=wrap;html=1;" vertex="1" parent="1Auj9QXmfHMQDuy0KA_7-11">
          <mxGeometry x="15" y="90" width="125" height="60" as="geometry" />
        </mxCell>
        <mxCell id="1Auj9QXmfHMQDuy0KA_7-15" style="edgeStyle=orthogonalEdgeStyle;rounded=0;orthogonalLoop=1;jettySize=auto;html=1;exitX=1;exitY=0.5;exitDx=0;exitDy=0;endArrow=none;endFill=0;" edge="1" parent="1Auj9QXmfHMQDuy0KA_7-6" source="1Auj9QXmfHMQDuy0KA_7-9" target="1Auj9QXmfHMQDuy0KA_7-13">
          <mxGeometry relative="1" as="geometry" />
        </mxCell>
        <mxCell id="1Auj9QXmfHMQDuy0KA_7-16" value="Bestelscherm" style="swimlane;whiteSpace=wrap;html=1;startSize=30;" vertex="1" parent="1Auj9QXmfHMQDuy0KA_7-6">
          <mxGeometry x="300" y="20" width="150" height="590" as="geometry" />
        </mxCell>
        <mxCell id="1Auj9QXmfHMQDuy0KA_7-20" style="edgeStyle=orthogonalEdgeStyle;rounded=0;orthogonalLoop=1;jettySize=auto;html=1;exitX=0.5;exitY=1;exitDx=0;exitDy=0;endArrow=none;endFill=0;" edge="1" parent="1Auj9QXmfHMQDuy0KA_7-16" source="1Auj9QXmfHMQDuy0KA_7-17" target="1Auj9QXmfHMQDuy0KA_7-19">
          <mxGeometry relative="1" as="geometry" />
        </mxCell>
        <mxCell id="1Auj9QXmfHMQDuy0KA_7-17" value="Selecteer datum, tijd locatie en de stoelen" style="rounded=1;whiteSpace=wrap;html=1;" vertex="1" parent="1Auj9QXmfHMQDuy0KA_7-16">
          <mxGeometry x="15" y="110" width="125" height="60" as="geometry" />
        </mxCell>
        <mxCell id="1Auj9QXmfHMQDuy0KA_7-19" value="Selecteer het soort tickets" style="rounded=1;whiteSpace=wrap;html=1;" vertex="1" parent="1Auj9QXmfHMQDuy0KA_7-16">
          <mxGeometry x="15" y="220" width="125" height="60" as="geometry" />
        </mxCell>
        <mxCell id="1Auj9QXmfHMQDuy0KA_7-22" value="" style="edgeStyle=orthogonalEdgeStyle;rounded=0;orthogonalLoop=1;jettySize=auto;html=1;startArrow=none;startFill=0;endArrow=none;endFill=0;" edge="1" parent="1Auj9QXmfHMQDuy0KA_7-16" source="1Auj9QXmfHMQDuy0KA_7-21" target="1Auj9QXmfHMQDuy0KA_7-19">
          <mxGeometry relative="1" as="geometry" />
        </mxCell>
        <mxCell id="1Auj9QXmfHMQDuy0KA_7-21" value="Klik op &quot;Naar betalen&quot;" style="rounded=1;whiteSpace=wrap;html=1;" vertex="1" parent="1Auj9QXmfHMQDuy0KA_7-16">
          <mxGeometry x="15" y="340" width="125" height="60" as="geometry" />
        </mxCell>
        <mxCell id="1Auj9QXmfHMQDuy0KA_7-18" style="edgeStyle=orthogonalEdgeStyle;rounded=0;orthogonalLoop=1;jettySize=auto;html=1;exitX=1;exitY=0.5;exitDx=0;exitDy=0;entryX=0;entryY=0.5;entryDx=0;entryDy=0;endArrow=none;endFill=0;" edge="1" parent="1Auj9QXmfHMQDuy0KA_7-6" source="1Auj9QXmfHMQDuy0KA_7-13" target="1Auj9QXmfHMQDuy0KA_7-17">
          <mxGeometry relative="1" as="geometry" />
        </mxCell>
        <mxCell id="1Auj9QXmfHMQDuy0KA_7-23" value="Betaalscherm" style="swimlane;whiteSpace=wrap;html=1;startSize=30;" vertex="1" parent="1Auj9QXmfHMQDuy0KA_7-6">
          <mxGeometry x="450" y="20" width="150" height="590" as="geometry" />
        </mxCell>
        <mxCell id="1Auj9QXmfHMQDuy0KA_7-24" style="edgeStyle=orthogonalEdgeStyle;rounded=0;orthogonalLoop=1;jettySize=auto;html=1;exitX=0.5;exitY=1;exitDx=0;exitDy=0;endArrow=none;endFill=0;" edge="1" parent="1Auj9QXmfHMQDuy0KA_7-23" source="1Auj9QXmfHMQDuy0KA_7-25" target="1Auj9QXmfHMQDuy0KA_7-26">
          <mxGeometry relative="1" as="geometry" />
        </mxCell>
        <mxCell id="1Auj9QXmfHMQDuy0KA_7-25" value="Selecteer betaalmethode&amp;nbsp;" style="rounded=1;whiteSpace=wrap;html=1;" vertex="1" parent="1Auj9QXmfHMQDuy0KA_7-23">
          <mxGeometry x="27.5" y="340" width="95" height="60" as="geometry" />
        </mxCell>
        <mxCell id="1Auj9QXmfHMQDuy0KA_7-31" style="edgeStyle=orthogonalEdgeStyle;rounded=0;orthogonalLoop=1;jettySize=auto;html=1;exitX=0.5;exitY=1;exitDx=0;exitDy=0;entryX=0.5;entryY=0;entryDx=0;entryDy=0;endArrow=none;endFill=0;" edge="1" parent="1Auj9QXmfHMQDuy0KA_7-23" source="1Auj9QXmfHMQDuy0KA_7-26" target="1Auj9QXmfHMQDuy0KA_7-30">
          <mxGeometry relative="1" as="geometry" />
        </mxCell>
        <mxCell id="1Auj9QXmfHMQDuy0KA_7-26" value="Klik op &quot;Betalen&quot;" style="rounded=1;whiteSpace=wrap;html=1;" vertex="1" parent="1Auj9QXmfHMQDuy0KA_7-23">
          <mxGeometry x="42.5" y="450" width="65" height="60" as="geometry" />
        </mxCell>
        <mxCell id="1Auj9QXmfHMQDuy0KA_7-30" value="" style="ellipse;shape=doubleEllipse;whiteSpace=wrap;html=1;aspect=fixed;" vertex="1" parent="1Auj9QXmfHMQDuy0KA_7-23">
          <mxGeometry x="61.25" y="550" width="27.5" height="27.5" as="geometry" />
        </mxCell>
        <mxCell id="1Auj9QXmfHMQDuy0KA_7-29" style="edgeStyle=orthogonalEdgeStyle;rounded=0;orthogonalLoop=1;jettySize=auto;html=1;exitX=1;exitY=0.5;exitDx=0;exitDy=0;entryX=0;entryY=0.5;entryDx=0;entryDy=0;endArrow=none;endFill=0;" edge="1" parent="1Auj9QXmfHMQDuy0KA_7-6" source="1Auj9QXmfHMQDuy0KA_7-21" target="1Auj9QXmfHMQDuy0KA_7-25">
          <mxGeometry relative="1" as="geometry" />
        </mxCell>
        <mxCell id="1Auj9QXmfHMQDuy0KA_7-32" value="Movieradar applicatie" style="swimlane;whiteSpace=wrap;html=1;startSize=20;" vertex="1" parent="1">
          <mxGeometry x="820" y="-110" width="610" height="610" as="geometry" />
        </mxCell>
        <mxCell id="1Auj9QXmfHMQDuy0KA_7-33" value="Homescherm" style="swimlane;whiteSpace=wrap;html=1;startSize=30;" vertex="1" parent="1Auj9QXmfHMQDuy0KA_7-32">
          <mxGeometry y="20" width="150" height="590" as="geometry" />
        </mxCell>
        <mxCell id="1Auj9QXmfHMQDuy0KA_7-34" value="" style="verticalLabelPosition=bottom;verticalAlign=top;html=1;shape=mxgraph.flowchart.on-page_reference;" vertex="1" parent="1Auj9QXmfHMQDuy0KA_7-33">
          <mxGeometry x="62.5" y="30" width="20" height="20" as="geometry" />
        </mxCell>
        <mxCell id="1Auj9QXmfHMQDuy0KA_7-35" value="Op film klikken" style="rounded=1;whiteSpace=wrap;html=1;" vertex="1" parent="1Auj9QXmfHMQDuy0KA_7-33">
          <mxGeometry x="15" y="90" width="115" height="60" as="geometry" />
        </mxCell>
        <mxCell id="1Auj9QXmfHMQDuy0KA_7-36" value="" style="endArrow=none;html=1;rounded=0;entryX=0.5;entryY=1;entryDx=0;entryDy=0;entryPerimeter=0;exitX=0.5;exitY=0;exitDx=0;exitDy=0;" edge="1" parent="1Auj9QXmfHMQDuy0KA_7-33" source="1Auj9QXmfHMQDuy0KA_7-35" target="1Auj9QXmfHMQDuy0KA_7-34">
          <mxGeometry width="50" height="50" relative="1" as="geometry">
            <mxPoint x="80" y="90" as="sourcePoint" />
            <mxPoint x="130" y="40" as="targetPoint" />
          </mxGeometry>
        </mxCell>
        <mxCell id="1Auj9QXmfHMQDuy0KA_7-37" value="Filmdetailscherm" style="swimlane;whiteSpace=wrap;html=1;startSize=30;" vertex="1" parent="1Auj9QXmfHMQDuy0KA_7-32">
          <mxGeometry x="150" y="20" width="240" height="590" as="geometry" />
        </mxCell>
        <mxCell id="1Auj9QXmfHMQDuy0KA_7-57" style="edgeStyle=orthogonalEdgeStyle;rounded=0;orthogonalLoop=1;jettySize=auto;html=1;exitX=0.5;exitY=1;exitDx=0;exitDy=0;entryX=0.5;entryY=0;entryDx=0;entryDy=0;endArrow=none;endFill=0;" edge="1" parent="1Auj9QXmfHMQDuy0KA_7-37" target="1Auj9QXmfHMQDuy0KA_7-56">
          <mxGeometry relative="1" as="geometry">
            <mxPoint x="77.5" y="150" as="sourcePoint" />
          </mxGeometry>
        </mxCell>
        <mxCell id="1Auj9QXmfHMQDuy0KA_7-52" value="" style="ellipse;shape=doubleEllipse;whiteSpace=wrap;html=1;aspect=fixed;" vertex="1" parent="1Auj9QXmfHMQDuy0KA_7-37">
          <mxGeometry x="83.75" y="550" width="27.5" height="27.5" as="geometry" />
        </mxCell>
        <mxCell id="1Auj9QXmfHMQDuy0KA_7-71" value="Klik op het hartje rechtsbovenin de pagina" style="rounded=1;whiteSpace=wrap;html=1;" vertex="1" parent="1Auj9QXmfHMQDuy0KA_7-37">
          <mxGeometry x="32.5" y="90" width="125" height="60" as="geometry" />
        </mxCell>
        <mxCell id="1Auj9QXmfHMQDuy0KA_7-72" value="" style="verticalLabelPosition=bottom;verticalAlign=top;html=1;strokeWidth=2;shape=mxgraph.arrows2.arrow;dy=0.6;dx=40;notch=0;" vertex="1" parent="1Auj9QXmfHMQDuy0KA_7-37">
          <mxGeometry x="115" y="140" width="55" height="20" as="geometry" />
        </mxCell>
        <mxCell id="1Auj9QXmfHMQDuy0KA_7-90" style="edgeStyle=orthogonalEdgeStyle;rounded=0;orthogonalLoop=1;jettySize=auto;html=1;exitX=0.5;exitY=1;exitDx=0;exitDy=0;entryX=0.5;entryY=0;entryDx=0;entryDy=0;endArrow=none;endFill=0;" edge="1" parent="1Auj9QXmfHMQDuy0KA_7-37" source="1Auj9QXmfHMQDuy0KA_7-83">
          <mxGeometry relative="1" as="geometry">
            <mxPoint x="77.5" y="340" as="targetPoint" />
          </mxGeometry>
        </mxCell>
        <mxCell id="1Auj9QXmfHMQDuy0KA_7-104" style="edgeStyle=orthogonalEdgeStyle;rounded=0;orthogonalLoop=1;jettySize=auto;html=1;exitX=0.5;exitY=1;exitDx=0;exitDy=0;entryX=0.25;entryY=0;entryDx=0;entryDy=0;endArrow=none;endFill=0;" edge="1" parent="1Auj9QXmfHMQDuy0KA_7-37" source="1Auj9QXmfHMQDuy0KA_7-83" target="1Auj9QXmfHMQDuy0KA_7-94">
          <mxGeometry relative="1" as="geometry" />
        </mxCell>
        <mxCell id="1Auj9QXmfHMQDuy0KA_7-83" value="Selecteer de lijst" style="rounded=1;whiteSpace=wrap;html=1;" vertex="1" parent="1Auj9QXmfHMQDuy0KA_7-37">
          <mxGeometry x="16.25" y="300" width="67.5" height="60" as="geometry" />
        </mxCell>
        <mxCell id="1Auj9QXmfHMQDuy0KA_7-92" style="edgeStyle=orthogonalEdgeStyle;rounded=0;orthogonalLoop=1;jettySize=auto;html=1;exitX=0;exitY=0.5;exitDx=0;exitDy=0;entryX=0.5;entryY=0;entryDx=0;entryDy=0;endArrow=none;endFill=0;exitPerimeter=0;" edge="1" parent="1Auj9QXmfHMQDuy0KA_7-37" source="1Auj9QXmfHMQDuy0KA_7-101" target="1Auj9QXmfHMQDuy0KA_7-83">
          <mxGeometry relative="1" as="geometry">
            <mxPoint x="47.5" y="240" as="sourcePoint" />
          </mxGeometry>
        </mxCell>
        <mxCell id="1Auj9QXmfHMQDuy0KA_7-144" value="Bestaand" style="edgeLabel;html=1;align=center;verticalAlign=middle;resizable=0;points=[];" vertex="1" connectable="0" parent="1Auj9QXmfHMQDuy0KA_7-92">
          <mxGeometry x="-0.1748" y="1" relative="1" as="geometry">
            <mxPoint x="-5" y="4" as="offset" />
          </mxGeometry>
        </mxCell>
        <mxCell id="1Auj9QXmfHMQDuy0KA_7-93" style="edgeStyle=orthogonalEdgeStyle;rounded=0;orthogonalLoop=1;jettySize=auto;html=1;exitX=1;exitY=0.5;exitDx=0;exitDy=0;entryX=0.5;entryY=0;entryDx=0;entryDy=0;endArrow=none;endFill=0;exitPerimeter=0;" edge="1" parent="1Auj9QXmfHMQDuy0KA_7-37" source="1Auj9QXmfHMQDuy0KA_7-101" target="1Auj9QXmfHMQDuy0KA_7-88">
          <mxGeometry relative="1" as="geometry">
            <mxPoint x="107.5" y="240" as="sourcePoint" />
          </mxGeometry>
        </mxCell>
        <mxCell id="1Auj9QXmfHMQDuy0KA_7-145" value="Nieuw" style="edgeLabel;html=1;align=center;verticalAlign=middle;resizable=0;points=[];" vertex="1" connectable="0" parent="1Auj9QXmfHMQDuy0KA_7-93">
          <mxGeometry x="-0.2918" y="-1" relative="1" as="geometry">
            <mxPoint x="1" y="10" as="offset" />
          </mxGeometry>
        </mxCell>
        <mxCell id="1Auj9QXmfHMQDuy0KA_7-105" style="edgeStyle=orthogonalEdgeStyle;rounded=0;orthogonalLoop=1;jettySize=auto;html=1;exitX=0.5;exitY=1;exitDx=0;exitDy=0;entryX=0.75;entryY=0;entryDx=0;entryDy=0;endArrow=none;endFill=0;" edge="1" parent="1Auj9QXmfHMQDuy0KA_7-37" source="1Auj9QXmfHMQDuy0KA_7-88" target="1Auj9QXmfHMQDuy0KA_7-94">
          <mxGeometry relative="1" as="geometry" />
        </mxCell>
        <mxCell id="1Auj9QXmfHMQDuy0KA_7-88" value="Maak een nieuwe lijst aan" style="rounded=1;whiteSpace=wrap;html=1;" vertex="1" parent="1Auj9QXmfHMQDuy0KA_7-37">
          <mxGeometry x="157.5" y="280" width="67.5" height="60" as="geometry" />
        </mxCell>
        <mxCell id="1Auj9QXmfHMQDuy0KA_7-96" style="edgeStyle=orthogonalEdgeStyle;rounded=0;orthogonalLoop=1;jettySize=auto;html=1;exitX=0.5;exitY=1;exitDx=0;exitDy=0;entryX=0.5;entryY=0;entryDx=0;entryDy=0;endArrow=none;endFill=0;" edge="1" parent="1Auj9QXmfHMQDuy0KA_7-37" source="1Auj9QXmfHMQDuy0KA_7-94" target="1Auj9QXmfHMQDuy0KA_7-52">
          <mxGeometry relative="1" as="geometry" />
        </mxCell>
        <mxCell id="1Auj9QXmfHMQDuy0KA_7-94" value="Film wordt toegevoegd aan geslecteerde lijst" style="rounded=1;whiteSpace=wrap;html=1;" vertex="1" parent="1Auj9QXmfHMQDuy0KA_7-37">
          <mxGeometry x="43.12" y="450" width="108.75" height="60" as="geometry" />
        </mxCell>
        <mxCell id="1Auj9QXmfHMQDuy0KA_7-101" value="Bestaande lijst of nieuwe" style="strokeWidth=2;html=1;shape=mxgraph.flowchart.decision;whiteSpace=wrap;" vertex="1" parent="1Auj9QXmfHMQDuy0KA_7-37">
          <mxGeometry x="56.25" y="200" width="127.5" height="70" as="geometry" />
        </mxCell>
        <mxCell id="1Auj9QXmfHMQDuy0KA_7-106" value="Selecteer de nieuwe lijst" style="rounded=1;whiteSpace=wrap;html=1;" vertex="1" parent="1Auj9QXmfHMQDuy0KA_7-37">
          <mxGeometry x="101.25" y="370" width="67.5" height="60" as="geometry" />
        </mxCell>
        <mxCell id="1Auj9QXmfHMQDuy0KA_7-39" style="edgeStyle=orthogonalEdgeStyle;rounded=0;orthogonalLoop=1;jettySize=auto;html=1;exitX=1;exitY=0.5;exitDx=0;exitDy=0;endArrow=none;endFill=0;entryX=0;entryY=0.5;entryDx=0;entryDy=0;" edge="1" parent="1Auj9QXmfHMQDuy0KA_7-32" source="1Auj9QXmfHMQDuy0KA_7-35" target="1Auj9QXmfHMQDuy0KA_7-71">
          <mxGeometry relative="1" as="geometry">
            <mxPoint x="165" y="140" as="targetPoint" />
          </mxGeometry>
        </mxCell>
        <mxCell id="1Auj9QXmfHMQDuy0KA_7-40" value="Subdiagram lane" style="swimlane;whiteSpace=wrap;html=1;startSize=30;fillColor=#0F1D0D;gradientColor=default;" vertex="1" parent="1Auj9QXmfHMQDuy0KA_7-32">
          <mxGeometry x="390" y="20" width="220" height="590" as="geometry" />
        </mxCell>
        <mxCell id="1Auj9QXmfHMQDuy0KA_7-41" style="edgeStyle=orthogonalEdgeStyle;rounded=0;orthogonalLoop=1;jettySize=auto;html=1;exitX=0.5;exitY=1;exitDx=0;exitDy=0;endArrow=none;endFill=0;" edge="1" parent="1Auj9QXmfHMQDuy0KA_7-40" target="1Auj9QXmfHMQDuy0KA_7-43">
          <mxGeometry relative="1" as="geometry">
            <mxPoint x="77.5" y="150" as="sourcePoint" />
          </mxGeometry>
        </mxCell>
        <mxCell id="1Auj9QXmfHMQDuy0KA_7-44" value="" style="edgeStyle=orthogonalEdgeStyle;rounded=0;orthogonalLoop=1;jettySize=auto;html=1;startArrow=none;startFill=0;endArrow=none;endFill=0;" edge="1" parent="1Auj9QXmfHMQDuy0KA_7-40" source="1Auj9QXmfHMQDuy0KA_7-45">
          <mxGeometry relative="1" as="geometry">
            <mxPoint x="77.4666666666667" y="230" as="targetPoint" />
          </mxGeometry>
        </mxCell>
        <mxCell id="1Auj9QXmfHMQDuy0KA_7-77" style="rounded=0;orthogonalLoop=1;jettySize=auto;html=1;exitX=0;exitY=0.5;exitDx=0;exitDy=0;entryX=0.5;entryY=0;entryDx=0;entryDy=0;endArrow=none;endFill=0;exitPerimeter=0;" edge="1" parent="1Auj9QXmfHMQDuy0KA_7-40" source="1Auj9QXmfHMQDuy0KA_7-97" target="1Auj9QXmfHMQDuy0KA_7-76">
          <mxGeometry relative="1" as="geometry">
            <mxPoint x="47.5" y="260" as="sourcePoint" />
          </mxGeometry>
        </mxCell>
        <mxCell id="1Auj9QXmfHMQDuy0KA_7-100" value="Lang" style="edgeLabel;html=1;align=center;verticalAlign=middle;resizable=0;points=[];" vertex="1" connectable="0" parent="1Auj9QXmfHMQDuy0KA_7-77">
          <mxGeometry x="0.1491" y="-2" relative="1" as="geometry">
            <mxPoint as="offset" />
          </mxGeometry>
        </mxCell>
        <mxCell id="1Auj9QXmfHMQDuy0KA_7-78" style="rounded=0;orthogonalLoop=1;jettySize=auto;html=1;exitX=1;exitY=0.5;exitDx=0;exitDy=0;entryX=0.5;entryY=0;entryDx=0;entryDy=0;endArrow=none;endFill=0;exitPerimeter=0;" edge="1" parent="1Auj9QXmfHMQDuy0KA_7-40" source="1Auj9QXmfHMQDuy0KA_7-97" target="1Auj9QXmfHMQDuy0KA_7-75">
          <mxGeometry relative="1" as="geometry">
            <mxPoint x="117.5" y="260" as="sourcePoint" />
          </mxGeometry>
        </mxCell>
        <mxCell id="1Auj9QXmfHMQDuy0KA_7-99" value="Kort" style="edgeLabel;html=1;align=center;verticalAlign=middle;resizable=0;points=[];" vertex="1" connectable="0" parent="1Auj9QXmfHMQDuy0KA_7-78">
          <mxGeometry x="0.2613" y="-2" relative="1" as="geometry">
            <mxPoint y="1" as="offset" />
          </mxGeometry>
        </mxCell>
        <mxCell id="1Auj9QXmfHMQDuy0KA_7-73" value="" style="verticalLabelPosition=bottom;verticalAlign=top;html=1;shape=mxgraph.flowchart.on-page_reference;" vertex="1" parent="1Auj9QXmfHMQDuy0KA_7-40">
          <mxGeometry x="103.75" y="80" width="20" height="20" as="geometry" />
        </mxCell>
        <mxCell id="1Auj9QXmfHMQDuy0KA_7-80" style="edgeStyle=orthogonalEdgeStyle;rounded=0;orthogonalLoop=1;jettySize=auto;html=1;exitX=0.5;exitY=1;exitDx=0;exitDy=0;entryX=0.5;entryY=0;entryDx=0;entryDy=0;endArrow=none;endFill=0;" edge="1" parent="1Auj9QXmfHMQDuy0KA_7-40" source="1Auj9QXmfHMQDuy0KA_7-75" target="1Auj9QXmfHMQDuy0KA_7-79">
          <mxGeometry relative="1" as="geometry" />
        </mxCell>
        <mxCell id="1Auj9QXmfHMQDuy0KA_7-75" value="Lijst wordt toegevoegd aan favorieten" style="rounded=1;whiteSpace=wrap;html=1;" vertex="1" parent="1Auj9QXmfHMQDuy0KA_7-40">
          <mxGeometry x="123.75" y="290" width="65" height="80" as="geometry" />
        </mxCell>
        <mxCell id="1Auj9QXmfHMQDuy0KA_7-76" value="Selecteer welke lijst de film in moet" style="rounded=1;whiteSpace=wrap;html=1;" vertex="1" parent="1Auj9QXmfHMQDuy0KA_7-40">
          <mxGeometry x="41.25" y="290" width="65" height="80" as="geometry" />
        </mxCell>
        <mxCell id="1Auj9QXmfHMQDuy0KA_7-79" value="" style="ellipse;shape=doubleEllipse;whiteSpace=wrap;html=1;aspect=fixed;" vertex="1" parent="1Auj9QXmfHMQDuy0KA_7-40">
          <mxGeometry x="146.25" y="400" width="27.5" height="27.5" as="geometry" />
        </mxCell>
        <mxCell id="1Auj9QXmfHMQDuy0KA_7-81" value="" style="verticalLabelPosition=bottom;verticalAlign=top;html=1;strokeWidth=2;shape=mxgraph.arrows2.arrow;dy=0.6;dx=40;notch=0;rotation=-180;" vertex="1" parent="1Auj9QXmfHMQDuy0KA_7-40">
          <mxGeometry x="31.25" y="360" width="55" height="20" as="geometry" />
        </mxCell>
        <mxCell id="1Auj9QXmfHMQDuy0KA_7-97" value="Lang of kort klikken" style="strokeWidth=2;html=1;shape=mxgraph.flowchart.decision;whiteSpace=wrap;" vertex="1" parent="1Auj9QXmfHMQDuy0KA_7-40">
          <mxGeometry x="63.75" y="130" width="105" height="70" as="geometry" />
        </mxCell>
        <mxCell id="1Auj9QXmfHMQDuy0KA_7-98" style="edgeStyle=orthogonalEdgeStyle;rounded=0;orthogonalLoop=1;jettySize=auto;html=1;exitX=0.5;exitY=1;exitDx=0;exitDy=0;exitPerimeter=0;entryX=0.5;entryY=0;entryDx=0;entryDy=0;entryPerimeter=0;endArrow=none;endFill=0;" edge="1" parent="1Auj9QXmfHMQDuy0KA_7-40" source="1Auj9QXmfHMQDuy0KA_7-73" target="1Auj9QXmfHMQDuy0KA_7-97">
          <mxGeometry relative="1" as="geometry" />
        </mxCell>
        <mxCell id="1Auj9QXmfHMQDuy0KA_7-53" style="edgeStyle=orthogonalEdgeStyle;rounded=0;orthogonalLoop=1;jettySize=auto;html=1;exitX=1;exitY=0.5;exitDx=0;exitDy=0;entryX=0;entryY=0.5;entryDx=0;entryDy=0;endArrow=none;endFill=0;" edge="1" parent="1Auj9QXmfHMQDuy0KA_7-32" target="1Auj9QXmfHMQDuy0KA_7-49">
          <mxGeometry relative="1" as="geometry">
            <mxPoint x="440" y="310" as="sourcePoint" />
          </mxGeometry>
        </mxCell>
        <mxCell id="1Auj9QXmfHMQDuy0KA_7-82" style="rounded=0;orthogonalLoop=1;jettySize=auto;html=1;exitX=1;exitY=0.5;exitDx=0;exitDy=0;exitPerimeter=0;entryX=0;entryY=0.5;entryDx=0;entryDy=0;entryPerimeter=0;endArrow=none;endFill=0;" edge="1" parent="1Auj9QXmfHMQDuy0KA_7-32" source="1Auj9QXmfHMQDuy0KA_7-72" target="1Auj9QXmfHMQDuy0KA_7-73">
          <mxGeometry relative="1" as="geometry" />
        </mxCell>
        <mxCell id="1Auj9QXmfHMQDuy0KA_7-102" style="edgeStyle=orthogonalEdgeStyle;rounded=0;orthogonalLoop=1;jettySize=auto;html=1;exitX=1;exitY=0.5;exitDx=0;exitDy=0;exitPerimeter=0;entryX=0.5;entryY=0;entryDx=0;entryDy=0;entryPerimeter=0;elbow=vertical;curved=1;" edge="1" parent="1Auj9QXmfHMQDuy0KA_7-32" source="1Auj9QXmfHMQDuy0KA_7-81" target="1Auj9QXmfHMQDuy0KA_7-101">
          <mxGeometry relative="1" as="geometry" />
        </mxCell>
        <mxCell id="1Auj9QXmfHMQDuy0KA_7-54" value="AD 1 Ticket bestellen" style="rounded=0;whiteSpace=wrap;html=1;" vertex="1" parent="1">
          <mxGeometry x="140" y="-170" width="120" height="60" as="geometry" />
        </mxCell>
        <mxCell id="1Auj9QXmfHMQDuy0KA_7-55" value="AD 2 Film toevoegen aan lijst" style="rounded=0;whiteSpace=wrap;html=1;" vertex="1" parent="1">
          <mxGeometry x="820" y="-170" width="120" height="60" as="geometry" />
        </mxCell>
        <mxCell id="1Auj9QXmfHMQDuy0KA_7-107" value="Movieradar applicatie" style="swimlane;whiteSpace=wrap;html=1;startSize=20;" vertex="1" parent="1">
          <mxGeometry x="1570" y="-110" width="380" height="610" as="geometry" />
        </mxCell>
        <mxCell id="1Auj9QXmfHMQDuy0KA_7-108" value="Homescherm" style="swimlane;whiteSpace=wrap;html=1;startSize=30;" vertex="1" parent="1Auj9QXmfHMQDuy0KA_7-107">
          <mxGeometry y="20" width="160" height="590" as="geometry" />
        </mxCell>
        <mxCell id="1Auj9QXmfHMQDuy0KA_7-109" value="" style="verticalLabelPosition=bottom;verticalAlign=top;html=1;shape=mxgraph.flowchart.on-page_reference;" vertex="1" parent="1Auj9QXmfHMQDuy0KA_7-108">
          <mxGeometry x="62.5" y="30" width="20" height="20" as="geometry" />
        </mxCell>
        <mxCell id="1Auj9QXmfHMQDuy0KA_7-110" value="Op &quot;Persoonlijk&quot; klikken" style="rounded=1;whiteSpace=wrap;html=1;" vertex="1" parent="1Auj9QXmfHMQDuy0KA_7-108">
          <mxGeometry x="15" y="90" width="115" height="60" as="geometry" />
        </mxCell>
        <mxCell id="1Auj9QXmfHMQDuy0KA_7-111" value="" style="endArrow=none;html=1;rounded=0;entryX=0.5;entryY=1;entryDx=0;entryDy=0;entryPerimeter=0;exitX=0.5;exitY=0;exitDx=0;exitDy=0;" edge="1" parent="1Auj9QXmfHMQDuy0KA_7-108" source="1Auj9QXmfHMQDuy0KA_7-110" target="1Auj9QXmfHMQDuy0KA_7-109">
          <mxGeometry width="50" height="50" relative="1" as="geometry">
            <mxPoint x="80" y="90" as="sourcePoint" />
            <mxPoint x="130" y="40" as="targetPoint" />
          </mxGeometry>
        </mxCell>
        <mxCell id="1Auj9QXmfHMQDuy0KA_7-112" value="Persoonlijk scherm" style="swimlane;whiteSpace=wrap;html=1;startSize=30;" vertex="1" parent="1Auj9QXmfHMQDuy0KA_7-107">
          <mxGeometry x="160" y="20" width="220" height="590" as="geometry" />
        </mxCell>
        <mxCell id="1Auj9QXmfHMQDuy0KA_7-140" style="edgeStyle=orthogonalEdgeStyle;rounded=0;orthogonalLoop=1;jettySize=auto;html=1;exitX=1;exitY=1;exitDx=0;exitDy=0;entryX=0.5;entryY=0;entryDx=0;entryDy=0;endArrow=none;endFill=0;" edge="1" parent="1Auj9QXmfHMQDuy0KA_7-112" source="1Auj9QXmfHMQDuy0KA_7-113" target="1Auj9QXmfHMQDuy0KA_7-139">
          <mxGeometry relative="1" as="geometry" />
        </mxCell>
        <mxCell id="1Auj9QXmfHMQDuy0KA_7-113" value="Vul de inlogvelden in" style="rounded=1;whiteSpace=wrap;html=1;" vertex="1" parent="1Auj9QXmfHMQDuy0KA_7-112">
          <mxGeometry x="18.75" y="350" width="70" height="60" as="geometry" />
        </mxCell>
        <mxCell id="1Auj9QXmfHMQDuy0KA_7-132" style="rounded=0;orthogonalLoop=1;jettySize=auto;html=1;exitX=0;exitY=0.5;exitDx=0;exitDy=0;exitPerimeter=0;entryX=0.5;entryY=0;entryDx=0;entryDy=0;endArrow=none;endFill=0;" edge="1" parent="1Auj9QXmfHMQDuy0KA_7-112" source="1Auj9QXmfHMQDuy0KA_7-130" target="1Auj9QXmfHMQDuy0KA_7-113">
          <mxGeometry relative="1" as="geometry" />
        </mxCell>
        <mxCell id="1Auj9QXmfHMQDuy0KA_7-133" value="Inloggen" style="edgeLabel;html=1;align=center;verticalAlign=middle;resizable=0;points=[];" vertex="1" connectable="0" parent="1Auj9QXmfHMQDuy0KA_7-132">
          <mxGeometry x="0.2212" y="-3" relative="1" as="geometry">
            <mxPoint y="-1" as="offset" />
          </mxGeometry>
        </mxCell>
        <mxCell id="1Auj9QXmfHMQDuy0KA_7-134" style="rounded=0;orthogonalLoop=1;jettySize=auto;html=1;exitX=1;exitY=0.5;exitDx=0;exitDy=0;exitPerimeter=0;entryX=0.5;entryY=0;entryDx=0;entryDy=0;endArrow=none;endFill=0;" edge="1" parent="1Auj9QXmfHMQDuy0KA_7-112" source="1Auj9QXmfHMQDuy0KA_7-130" target="1Auj9QXmfHMQDuy0KA_7-131">
          <mxGeometry relative="1" as="geometry" />
        </mxCell>
        <mxCell id="1Auj9QXmfHMQDuy0KA_7-135" value="Registreren" style="edgeLabel;html=1;align=center;verticalAlign=middle;resizable=0;points=[];" vertex="1" connectable="0" parent="1Auj9QXmfHMQDuy0KA_7-134">
          <mxGeometry x="0.0218" y="3" relative="1" as="geometry">
            <mxPoint as="offset" />
          </mxGeometry>
        </mxCell>
        <mxCell id="1Auj9QXmfHMQDuy0KA_7-130" value="Inloggen of registreren" style="strokeWidth=2;html=1;shape=mxgraph.flowchart.decision;whiteSpace=wrap;" vertex="1" parent="1Auj9QXmfHMQDuy0KA_7-112">
          <mxGeometry x="50" y="70" width="105" height="70" as="geometry" />
        </mxCell>
        <mxCell id="1Auj9QXmfHMQDuy0KA_7-137" style="edgeStyle=orthogonalEdgeStyle;rounded=0;orthogonalLoop=1;jettySize=auto;html=1;exitX=0.5;exitY=1;exitDx=0;exitDy=0;entryX=0.5;entryY=0;entryDx=0;entryDy=0;endArrow=none;endFill=0;" edge="1" parent="1Auj9QXmfHMQDuy0KA_7-112" source="1Auj9QXmfHMQDuy0KA_7-131" target="1Auj9QXmfHMQDuy0KA_7-136">
          <mxGeometry relative="1" as="geometry" />
        </mxCell>
        <mxCell id="1Auj9QXmfHMQDuy0KA_7-131" value="Vul de registreer-velden in" style="rounded=1;whiteSpace=wrap;html=1;" vertex="1" parent="1Auj9QXmfHMQDuy0KA_7-112">
          <mxGeometry x="116.25" y="210" width="70" height="60" as="geometry" />
        </mxCell>
        <mxCell id="1Auj9QXmfHMQDuy0KA_7-138" style="edgeStyle=orthogonalEdgeStyle;rounded=0;orthogonalLoop=1;jettySize=auto;html=1;exitX=0;exitY=1;exitDx=0;exitDy=0;entryX=1;entryY=0;entryDx=0;entryDy=0;endArrow=none;endFill=0;" edge="1" parent="1Auj9QXmfHMQDuy0KA_7-112" source="1Auj9QXmfHMQDuy0KA_7-136" target="1Auj9QXmfHMQDuy0KA_7-113">
          <mxGeometry relative="1" as="geometry" />
        </mxCell>
        <mxCell id="1Auj9QXmfHMQDuy0KA_7-136" value="Klik op registreren" style="rounded=1;whiteSpace=wrap;html=1;" vertex="1" parent="1Auj9QXmfHMQDuy0KA_7-112">
          <mxGeometry x="115" y="300" width="70" height="60" as="geometry" />
        </mxCell>
        <mxCell id="1Auj9QXmfHMQDuy0KA_7-142" style="edgeStyle=orthogonalEdgeStyle;rounded=0;orthogonalLoop=1;jettySize=auto;html=1;exitX=0.5;exitY=1;exitDx=0;exitDy=0;entryX=0.5;entryY=0;entryDx=0;entryDy=0;endArrow=none;endFill=0;" edge="1" parent="1Auj9QXmfHMQDuy0KA_7-112" source="1Auj9QXmfHMQDuy0KA_7-139" target="1Auj9QXmfHMQDuy0KA_7-141">
          <mxGeometry relative="1" as="geometry" />
        </mxCell>
        <mxCell id="1Auj9QXmfHMQDuy0KA_7-139" value="Klik op inooggen" style="rounded=1;whiteSpace=wrap;html=1;" vertex="1" parent="1Auj9QXmfHMQDuy0KA_7-112">
          <mxGeometry x="67.5" y="450" width="70" height="60" as="geometry" />
        </mxCell>
        <mxCell id="1Auj9QXmfHMQDuy0KA_7-141" value="" style="ellipse;shape=doubleEllipse;whiteSpace=wrap;html=1;aspect=fixed;" vertex="1" parent="1Auj9QXmfHMQDuy0KA_7-112">
          <mxGeometry x="88.75" y="550" width="27.5" height="27.5" as="geometry" />
        </mxCell>
        <mxCell id="1Auj9QXmfHMQDuy0KA_7-143" style="edgeStyle=orthogonalEdgeStyle;rounded=0;orthogonalLoop=1;jettySize=auto;html=1;exitX=1;exitY=0.5;exitDx=0;exitDy=0;entryX=0.5;entryY=0;entryDx=0;entryDy=0;entryPerimeter=0;" edge="1" parent="1Auj9QXmfHMQDuy0KA_7-107" source="1Auj9QXmfHMQDuy0KA_7-110" target="1Auj9QXmfHMQDuy0KA_7-130">
          <mxGeometry relative="1" as="geometry" />
        </mxCell>
        <mxCell id="1Auj9QXmfHMQDuy0KA_7-129" value="AD 3 Inloggen/Registreren" style="rounded=0;whiteSpace=wrap;html=1;" vertex="1" parent="1">
          <mxGeometry x="1570" y="-170" width="160" height="60" as="geometry" />
        </mxCell>
      </root>
    </mxGraphModel>
  </diagram>
</mxfile>
